<svg width="19" height="20" viewBox="0 0 19 20" fill="none" xmlns="http://www.w3.org/2000/svg">
<path d="M12.8334 18.3334V15.1084C12.8646 14.711 12.8109 14.3115 12.6759 13.9365C12.5408 13.5615 12.3275 13.2195 12.05 12.9334C14.6667 12.6417 17.4167 11.65 17.4167 7.10003C17.4165 5.93655 16.9689 4.8177 16.1667 3.97503C16.5466 2.95712 16.5197 1.83199 16.0917 0.833363C16.0917 0.833363 15.1084 0.541696 12.8334 2.0667C10.9234 1.54905 8.91001 1.54905 7.00002 2.0667C4.72502 0.541696 3.74169 0.833363 3.74169 0.833363C3.31367 1.83199 3.28681 2.95712 3.66669 3.97503C2.85846 4.82395 2.41046 5.95292 2.41669 7.12503C2.41669 11.6417 5.16669 12.6334 7.78335 12.9584C7.50918 13.2417 7.29774 13.5795 7.16278 13.95C7.02782 14.3204 6.97236 14.7151 7.00002 15.1084V18.3334M7.00002 15.8334C2.83335 17.0834 2.83335 13.75 1.16669 13.3334L7.00002 15.8334Z" stroke="#131414" stroke-width="2" stroke-linecap="round" stroke-linejoin="round"/>
</svg>
